<svg width="37" height="36" viewBox="0 0 37 36" fill="none" xmlns="http://www.w3.org/2000/svg">
<path d="M15.2483 27.2246H9.56335C8.94835 27.2246 8.43835 26.7146 8.43835 26.0996V18.4196C8.43835 16.8596 9.71334 15.5844 11.2733 15.5844H15.2483C15.8633 15.5844 16.3733 16.0944 16.3733 16.7094V26.0844C16.3733 26.7144 15.8633 27.2246 15.2483 27.2246ZM10.6884 24.9746H14.1233V17.8496H11.2733C10.9583 17.8496 10.6884 18.1044 10.6884 18.4344V24.9746Z" fill="#292D32"/>
<path d="M20.9173 27.2245H15.2323C14.6173 27.2245 14.1073 26.7145 14.1073 26.0995V11.6094C14.1073 10.0494 15.3823 8.77441 16.9423 8.77441H19.2223C20.7823 8.77441 22.0573 10.0494 22.0573 11.6094V26.0995C22.0423 26.7145 21.5473 27.2245 20.9173 27.2245ZM16.3723 24.9745H19.8073V11.6094C19.8073 11.2944 19.5523 11.0244 19.2223 11.0244H16.9423C16.6273 11.0244 16.3573 11.2794 16.3573 11.6094V24.9745H16.3723Z" fill="#292D32"/>
<path d="M26.6038 27.2246H20.9188C20.3038 27.2246 19.7938 26.7146 19.7938 26.0996V19.2744C19.7938 18.6594 20.3038 18.1494 20.9188 18.1494H24.8938C26.4538 18.1494 27.7288 19.4244 27.7288 20.9844V26.0996C27.7288 26.7146 27.2338 27.2246 26.6038 27.2246ZM22.0438 24.9746H25.4788V20.9844C25.4788 20.6694 25.2238 20.3994 24.8938 20.3994H22.0438V24.9746Z" fill="#292D32"/>
<path d="M22.5829 34.125H13.5829C5.43789 34.125 1.95789 30.645 1.95789 22.5V13.5C1.95789 5.355 5.43789 1.875 13.5829 1.875H22.5829C30.7279 1.875 34.2079 5.355 34.2079 13.5V22.5C34.2079 30.645 30.7279 34.125 22.5829 34.125ZM13.5829 4.125C6.66789 4.125 4.20789 6.585 4.20789 13.5V22.5C4.20789 29.415 6.66789 31.875 13.5829 31.875H22.5829C29.4979 31.875 31.9579 29.415 31.9579 22.5V13.5C31.9579 6.585 29.4979 4.125 22.5829 4.125H13.5829Z" fill="#292D32"/>
</svg>
