<svg width="36" height="36" viewBox="0 0 36 36" fill="none" xmlns="http://www.w3.org/2000/svg">
<g clip-path="url(#clip0_12_666)">
<path d="M18 35.9995C27.9411 35.9995 36 27.9406 36 17.9995C36 8.05839 27.9411 -0.000488281 18 -0.000488281C8.05886 -0.000488281 -1.52588e-05 8.05839 -1.52588e-05 17.9995C-1.52588e-05 27.9406 8.05886 35.9995 18 35.9995Z" fill="#007AB9"/>
<path d="M28.7548 19.4481V26.8691H24.4523V19.9455C24.4523 18.207 23.8311 17.0198 22.2733 17.0198C21.0845 17.0198 20.3783 17.8191 20.0664 18.593C19.9531 18.8696 19.9239 19.2537 19.9239 19.6416V26.8688H15.6211C15.6211 26.8688 15.6788 15.1424 15.6211 13.9286H19.9242V15.7623C19.9156 15.7768 19.9034 15.7909 19.8957 15.8047H19.9242V15.7623C20.496 14.8825 21.5157 13.6247 23.8019 13.6247C26.6326 13.6247 28.7548 15.4742 28.7548 19.4481ZM11.12 7.69092C9.64813 7.69092 8.68521 8.65705 8.68521 9.9264C8.68521 11.1688 9.62022 12.1628 11.0635 12.1628H11.0914C12.5921 12.1628 13.5252 11.1688 13.5252 9.9264C13.4966 8.65705 12.5921 7.69092 11.12 7.69092ZM8.94094 26.8691H13.2422V13.9286H8.94094V26.8691Z" fill="#F1F2F2"/>
</g>
<defs>
<clipPath id="clip0_12_666">
<rect width="36" height="36" fill="white"/>
</clipPath>
</defs>
</svg>
