<svg width="25" height="24" viewBox="0 0 25 24" fill="none" xmlns="http://www.w3.org/2000/svg">
<path d="M12.2822 21.75C6.65562 21.75 2.07471 17.15 2.07471 11.5C2.07471 5.85 6.65562 1.25 12.2822 1.25C17.9087 1.25 22.4896 5.85 22.4896 11.5C22.4896 17.15 17.9087 21.75 12.2822 21.75ZM12.2822 2.75C7.47222 2.75 3.56848 6.68 3.56848 11.5C3.56848 16.32 7.47222 20.25 12.2822 20.25C17.0921 20.25 20.9959 16.32 20.9959 11.5C20.9959 6.68 17.0921 2.75 12.2822 2.75Z" fill="#757575"/>
<path d="M22.7389 22.7499C22.5497 22.7499 22.3605 22.6799 22.2111 22.5299L20.2194 20.5299C19.9306 20.2399 19.9306 19.7599 20.2194 19.4699C20.5082 19.1799 20.9862 19.1799 21.275 19.4699L23.2667 21.4699C23.5555 21.7599 23.5555 22.2399 23.2667 22.5299C23.1173 22.6799 22.9281 22.7499 22.7389 22.7499Z" fill="#757575"/>
</svg>
