<svg width="37" height="36" viewBox="0 0 37 36" fill="none" xmlns="http://www.w3.org/2000/svg">
<path d="M20.3329 13.875H3.08289C2.46789 13.875 1.95789 13.365 1.95789 12.75C1.95789 12.135 2.46789 11.625 3.08289 11.625H20.3329C20.9479 11.625 21.4579 12.135 21.4579 12.75C21.4579 13.365 20.9479 13.875 20.3329 13.875Z" fill="black"/>
<path d="M12.0829 25.875H9.08289C8.46789 25.875 7.95789 25.365 7.95789 24.75C7.95789 24.135 8.46789 23.625 9.08289 23.625H12.0829C12.6979 23.625 13.2079 24.135 13.2079 24.75C13.2079 25.365 12.6979 25.875 12.0829 25.875Z" fill="black"/>
<path d="M21.8329 25.875H15.8329C15.2179 25.875 14.7079 25.365 14.7079 24.75C14.7079 24.135 15.2179 23.625 15.8329 23.625H21.8329C22.4479 23.625 22.9579 24.135 22.9579 24.75C22.9579 25.365 22.4479 25.875 21.8329 25.875Z" fill="black"/>
<path d="M26.4229 31.875H9.74289C3.77289 31.875 1.95789 30.075 1.95789 24.165V11.835C1.95789 5.925 3.77289 4.125 9.74289 4.125H20.3329C20.9479 4.125 21.4579 4.635 21.4579 5.25C21.4579 5.865 20.9479 6.375 20.3329 6.375H9.74289C5.03289 6.375 4.20789 7.185 4.20789 11.835V24.15C4.20789 28.8 5.03289 29.61 9.74289 29.61H26.4079C31.1179 29.61 31.9429 28.8 31.9429 24.15V16.53C31.9429 15.915 32.4529 15.405 33.0679 15.405C33.6829 15.405 34.1929 15.915 34.1929 16.53V24.15C34.2079 30.075 32.3929 31.875 26.4229 31.875Z" fill="black"/>
<path d="M27.0821 12.3756C26.7971 12.3756 26.5121 12.2706 26.2871 12.0456L24.0371 9.79564C23.6021 9.36064 23.6021 8.64064 24.0371 8.20564C24.4721 7.77064 25.1921 7.77064 25.6271 8.20564L27.0821 9.66064L32.2871 4.45564C32.7221 4.02064 33.4421 4.02064 33.8771 4.45564C34.3121 4.89064 34.3121 5.61064 33.8771 6.04564L27.8771 12.0456C27.6521 12.2706 27.3671 12.3756 27.0821 12.3756Z" fill="black"/>
</svg>
